<?xml version="1.0" encoding="UTF-8" standalone="no"?><svg xmlns="http://www.w3.org/2000/svg" xmlns:xlink="http://www.w3.org/1999/xlink" contentScriptType="application/ecmascript" contentStyleType="text/css" height="1117px" preserveAspectRatio="none" style="width:393px;height:1117px;background:#FFFFFF;" version="1.1" viewBox="0 0 393 1117" width="393px" zoomAndPan="magnify"><defs><filter height="300%" id="f196ppjbhjbdx" width="300%" x="-1" y="-1"><feGaussianBlur result="blurOut" stdDeviation="2.0"/><feColorMatrix in="blurOut" result="blurOut2" type="matrix" values="0 0 0 0 0 0 0 0 0 0 0 0 0 0 0 0 0 0 .4 0"/><feOffset dx="4.0" dy="4.0" in="blurOut2" result="blurOut3"/><feBlend in="SourceGraphic" in2="blurOut3" mode="normal"/></filter></defs><g><text fill="#000000" font-family="sans-serif" font-size="18" lengthAdjust="spacing" textLength="124" x="128.275" y="17.4023">Class Diagram</text><!--MD5=[4520fda4e10d4d791ce48fe025810cd4]
class main--><rect codeLine="6" fill="#FEFECE" filter="url(#f196ppjbhjbdx)" height="146.6855" id="main" style="stroke:#A80036;stroke-width:1.5;" width="161" x="161.5" y="28.1992"/><ellipse cx="223.75" cy="44.1992" fill="#FFA500" rx="11" ry="11" style="stroke:#A80036;stroke-width:1.0;"/><path d="M227.4805,40.4644 L222.2095,40.4644 L222.2095,43.1372 L227.0073,43.1372 L227.0073,45.2954 L222.2095,45.2954 L222.2095,50.6992 L219.7607,50.6992 L219.7607,38.3062 L227.4805,38.3062 Z " fill="#000000"/><text fill="#000000" font-family="sans-serif" font-size="12" lengthAdjust="spacing" textLength="28" x="244.25" y="48.7344">main</text><line style="stroke:#A80036;stroke-width:1.5;" x1="162.5" x2="321.5" y1="60.1992" y2="60.1992"/><text fill="#000000" font-family="sans-serif" font-size="11" lengthAdjust="spacing" textLength="98" x="167.5" y="74.834">script, first = argv</text><line style="stroke:#A80036;stroke-width:1.0;" x1="162.5" x2="321.5" y1="81.1543" y2="81.1543"/><text fill="#000000" font-family="sans-serif" font-size="11" lengthAdjust="spacing" textLength="78" x="167.5" y="95.7891">rc = Console()</text><text fill="#000000" font-family="sans-serif" font-size="11" lengthAdjust="spacing" textLength="98" x="167.5" y="108.7441">nbox = NboxApi()</text><text fill="#000000" font-family="sans-serif" font-size="11" lengthAdjust="spacing" textLength="132" x="167.5" y="121.6992">create_dm = CreateDm()</text><text fill="#000000" font-family="sans-serif" font-size="11" lengthAdjust="spacing" textLength="149" x="167.5" y="134.6543">create_obj = CreateObject()</text><line style="stroke:#A80036;stroke-width:1.0;" x1="162.5" x2="321.5" y1="140.9746" y2="140.9746"/><text fill="#000000" font-family="sans-serif" font-size="11" lengthAdjust="spacing" textLength="135" x="167.5" y="155.6094">dm = create_dm.engine()</text><text fill="#000000" font-family="sans-serif" font-size="11" lengthAdjust="spacing" textLength="103" x="167.5" y="168.5645">create_obj.engine()</text><!--MD5=[e6168a61d4663cec395433b21cb32b8e]
class CreateDm--><rect codeLine="18" fill="#FEFECE" filter="url(#f196ppjbhjbdx)" height="294.1465" id="CreateDm" style="stroke:#A80036;stroke-width:1.5;" width="124" x="7" y="280.6992"/><ellipse cx="37.3" cy="296.6992" fill="#ADD1B2" rx="11" ry="11" style="stroke:#A80036;stroke-width:1.0;"/><path d="M39.7731,302.8423 Q39.1921,303.1411 38.5529,303.2905 Q37.9138,303.4399 37.2082,303.4399 Q34.7014,303.4399 33.3815,301.7881 Q32.0617,300.1362 32.0617,297.0151 Q32.0617,293.8857 33.3815,292.2339 Q34.7014,290.582 37.2082,290.582 Q37.9138,290.582 38.5612,290.7314 Q39.2087,290.8809 39.7731,291.1797 L39.7731,293.9023 Q39.1423,293.3213 38.5488,293.0515 Q37.9553,292.7817 37.3244,292.7817 Q35.9797,292.7817 35.2949,293.8484 Q34.6101,294.915 34.6101,297.0151 Q34.6101,299.1069 35.2949,300.1736 Q35.9797,301.2402 37.3244,301.2402 Q37.9553,301.2402 38.5488,300.9705 Q39.1423,300.7007 39.7731,300.1196 Z " fill="#000000"/><text fill="#000000" font-family="sans-serif" font-size="12" lengthAdjust="spacing" textLength="58" x="54.7" y="301.2344">CreateDm</text><line style="stroke:#A80036;stroke-width:1.5;" x1="8" x2="130" y1="312.6992" y2="312.6992"/><ellipse cx="18" cy="323.6992" rx="3" ry="3" style="stroke:#038048;stroke-width:1.0;fill:none;"/><text fill="#000000" font-family="sans-serif" font-size="11" lengthAdjust="spacing" textLength="66" x="27" y="327.334">self.rc: class</text><ellipse cx="18" cy="336.6543" rx="3" ry="3" style="stroke:#038048;stroke-width:1.0;fill:none;"/><text fill="#000000" font-family="sans-serif" font-size="11" lengthAdjust="spacing" textLength="83" x="27" y="340.2891">self.nbox: class</text><ellipse cx="18" cy="349.6094" rx="3" ry="3" style="stroke:#038048;stroke-width:1.0;fill:none;"/><text fill="#000000" font-family="sans-serif" font-size="11" lengthAdjust="spacing" textLength="93" x="27" y="353.2441">self.my_vars: dict</text><ellipse cx="18" cy="362.5645" rx="3" ry="3" style="stroke:#038048;stroke-width:1.0;fill:none;"/><text fill="#000000" font-family="sans-serif" font-size="11" lengthAdjust="spacing" textLength="68" x="27" y="366.1992">clstr_err: list</text><ellipse cx="18" cy="375.5195" rx="3" ry="3" style="stroke:#038048;stroke-width:1.0;fill:none;"/><text fill="#000000" font-family="sans-serif" font-size="11" lengthAdjust="spacing" textLength="75" x="27" y="379.1543">clstr_site: dict</text><ellipse cx="18" cy="388.4746" rx="3" ry="3" style="stroke:#038048;stroke-width:1.0;fill:none;"/><text fill="#000000" font-family="sans-serif" font-size="11" lengthAdjust="spacing" textLength="60" x="27" y="392.1094">vm_err: list</text><ellipse cx="18" cy="401.4297" rx="3" ry="3" style="stroke:#038048;stroke-width:1.0;fill:none;"/><text fill="#000000" font-family="sans-serif" font-size="11" lengthAdjust="spacing" textLength="69" x="27" y="405.0645">tmp_vm: dict</text><ellipse cx="18" cy="414.3848" rx="3" ry="3" style="stroke:#038048;stroke-width:1.0;fill:none;"/><text fill="#000000" font-family="sans-serif" font-size="11" lengthAdjust="spacing" textLength="42" x="27" y="418.0195">vm: dict</text><ellipse cx="18" cy="427.3398" rx="3" ry="3" style="stroke:#038048;stroke-width:1.0;fill:none;"/><text fill="#000000" font-family="sans-serif" font-size="11" lengthAdjust="spacing" textLength="62" x="27" y="430.9746">intf_err: list</text><ellipse cx="18" cy="440.2949" rx="3" ry="3" style="stroke:#038048;stroke-width:1.0;fill:none;"/><text fill="#000000" font-family="sans-serif" font-size="11" lengthAdjust="spacing" textLength="68" x="27" y="443.9297">attr_dict:dict</text><ellipse cx="18" cy="453.25" rx="3" ry="3" style="stroke:#038048;stroke-width:1.0;fill:none;"/><text fill="#000000" font-family="sans-serif" font-size="11" lengthAdjust="spacing" textLength="98" x="27" y="456.8848">tmp_attr_dict: dict</text><ellipse cx="18" cy="466.2051" rx="3" ry="3" style="stroke:#038048;stroke-width:1.0;fill:none;"/><text fill="#000000" font-family="sans-serif" font-size="11" lengthAdjust="spacing" textLength="97" x="27" y="469.8398">tmp_intf_dict: dict</text><ellipse cx="18" cy="479.1602" rx="3" ry="3" style="stroke:#038048;stroke-width:1.0;fill:none;"/><text fill="#000000" font-family="sans-serif" font-size="11" lengthAdjust="spacing" textLength="83" x="27" y="482.7949">tmp_intf_ip: list</text><ellipse cx="18" cy="492.1152" rx="3" ry="3" style="stroke:#038048;stroke-width:1.0;fill:none;"/><text fill="#000000" font-family="sans-serif" font-size="11" lengthAdjust="spacing" textLength="56" x="27" y="495.75">all_vm: list</text><line style="stroke:#A80036;stroke-width:1.5;" x1="8" x2="130" y1="502.0703" y2="502.0703"/><ellipse cx="18" cy="513.0703" fill="#84BE84" rx="3" ry="3" style="stroke:#038048;stroke-width:1.0;"/><text fill="#000000" font-family="sans-serif" font-size="11" lengthAdjust="spacing" textLength="44" x="27" y="516.7051">engine()</text><ellipse cx="18" cy="526.0254" fill="#84BE84" rx="3" ry="3" style="stroke:#038048;stroke-width:1.0;"/><text fill="#000000" font-family="sans-serif" font-size="11" lengthAdjust="spacing" textLength="63" x="27" y="529.6602">create_vm()</text><ellipse cx="18" cy="538.9805" fill="#84BE84" rx="3" ry="3" style="stroke:#038048;stroke-width:1.0;"/><text fill="#000000" font-family="sans-serif" font-size="11" lengthAdjust="spacing" textLength="93" x="27" y="542.6152">rmv_empty_attr()</text><ellipse cx="18" cy="551.9355" fill="#84BE84" rx="3" ry="3" style="stroke:#038048;stroke-width:1.0;"/><text fill="#000000" font-family="sans-serif" font-size="11" lengthAdjust="spacing" textLength="88" x="27" y="555.5703">create_intf_dm()</text><ellipse cx="18" cy="564.8906" fill="#84BE84" rx="3" ry="3" style="stroke:#038048;stroke-width:1.0;"/><text fill="#000000" font-family="sans-serif" font-size="11" lengthAdjust="spacing" textLength="58" x="27" y="568.5254">vm_error()</text><!--MD5=[ab9565774875b0b0a2657568fe62edab]
class CreateObject--><rect codeLine="40" fill="#FEFECE" filter="url(#f196ppjbhjbdx)" height="384.832" id="CreateObject" style="stroke:#A80036;stroke-width:1.5;" width="151" x="166.5" y="235.1992"/><ellipse cx="200.85" cy="251.1992" fill="#ADD1B2" rx="11" ry="11" style="stroke:#A80036;stroke-width:1.0;"/><path d="M203.3231,257.3423 Q202.7421,257.6411 202.1029,257.7905 Q201.4638,257.9399 200.7582,257.9399 Q198.2514,257.9399 196.9315,256.2881 Q195.6117,254.6362 195.6117,251.5151 Q195.6117,248.3857 196.9315,246.7339 Q198.2514,245.082 200.7582,245.082 Q201.4638,245.082 202.1112,245.2314 Q202.7587,245.3809 203.3231,245.6797 L203.3231,248.4023 Q202.6923,247.8213 202.0988,247.5515 Q201.5053,247.2817 200.8744,247.2817 Q199.5297,247.2817 198.8449,248.3484 Q198.1601,249.415 198.1601,251.5151 Q198.1601,253.6069 198.8449,254.6736 Q199.5297,255.7402 200.8744,255.7402 Q201.5053,255.7402 202.0988,255.4705 Q202.6923,255.2007 203.3231,254.6196 Z " fill="#000000"/><text fill="#000000" font-family="sans-serif" font-size="12" lengthAdjust="spacing" textLength="76" x="219.15" y="255.7344">CreateObject</text><line style="stroke:#A80036;stroke-width:1.5;" x1="167.5" x2="316.5" y1="267.1992" y2="267.1992"/><ellipse cx="177.5" cy="278.1992" rx="3" ry="3" style="stroke:#038048;stroke-width:1.0;fill:none;"/><text fill="#000000" font-family="sans-serif" font-size="11" lengthAdjust="spacing" textLength="66" x="186.5" y="281.834">self.rc: class</text><ellipse cx="177.5" cy="291.1543" rx="3" ry="3" style="stroke:#038048;stroke-width:1.0;fill:none;"/><text fill="#000000" font-family="sans-serif" font-size="11" lengthAdjust="spacing" textLength="83" x="186.5" y="294.7891">self.nbox: class</text><ellipse cx="177.5" cy="304.1094" rx="3" ry="3" style="stroke:#038048;stroke-width:1.0;fill:none;"/><text fill="#000000" font-family="sans-serif" font-size="11" lengthAdjust="spacing" textLength="42" x="186.5" y="307.7441">vm: dict</text><ellipse cx="177.5" cy="317.0645" rx="3" ry="3" style="stroke:#038048;stroke-width:1.0;fill:none;"/><text fill="#000000" font-family="sans-serif" font-size="11" lengthAdjust="spacing" textLength="69" x="186.5" y="320.6992">vm_info: dict</text><ellipse cx="177.5" cy="330.0195" rx="3" ry="3" style="stroke:#038048;stroke-width:1.0;fill:none;"/><text fill="#000000" font-family="sans-serif" font-size="11" lengthAdjust="spacing" textLength="71" x="186.5" y="333.6543">intf_info: dict</text><ellipse cx="177.5" cy="342.9746" rx="3" ry="3" style="stroke:#038048;stroke-width:1.0;fill:none;"/><text fill="#000000" font-family="sans-serif" font-size="11" lengthAdjust="spacing" textLength="74" x="186.5" y="346.6094">vm_exist: dict</text><ellipse cx="177.5" cy="355.9297" rx="3" ry="3" style="stroke:#038048;stroke-width:1.0;fill:none;"/><text fill="#000000" font-family="sans-serif" font-size="11" lengthAdjust="spacing" textLength="80" x="186.5" y="359.5645">deploy_err: list</text><ellipse cx="177.5" cy="368.8848" rx="3" ry="3" style="stroke:#038048;stroke-width:1.0;fill:none;"/><text fill="#000000" font-family="sans-serif" font-size="11" lengthAdjust="spacing" textLength="79" x="186.5" y="372.5195">vm_result: dict</text><ellipse cx="177.5" cy="381.8398" rx="3" ry="3" style="stroke:#038048;stroke-width:1.0;fill:none;"/><text fill="#000000" font-family="sans-serif" font-size="11" lengthAdjust="spacing" textLength="43" x="186.5" y="385.4746">dm: dict</text><ellipse cx="177.5" cy="394.7949" rx="3" ry="3" style="stroke:#038048;stroke-width:1.0;fill:none;"/><text fill="#000000" font-family="sans-serif" font-size="11" lengthAdjust="spacing" textLength="105" x="186.5" y="398.4297">vm_attr_update: str</text><ellipse cx="177.5" cy="407.75" rx="3" ry="3" style="stroke:#038048;stroke-width:1.0;fill:none;"/><text fill="#000000" font-family="sans-serif" font-size="11" lengthAdjust="spacing" textLength="71" x="186.5" y="411.3848">intf_info: dict</text><ellipse cx="177.5" cy="420.7051" rx="3" ry="3" style="stroke:#038048;stroke-width:1.0;fill:none;"/><text fill="#000000" font-family="sans-serif" font-size="11" lengthAdjust="spacing" textLength="77" x="186.5" y="424.3398">intf_result: list</text><ellipse cx="177.5" cy="433.6602" rx="3" ry="3" style="stroke:#038048;stroke-width:1.0;fill:none;"/><text fill="#000000" font-family="sans-serif" font-size="11" lengthAdjust="spacing" textLength="76" x="186.5" y="437.2949">intf_exist: dict</text><ellipse cx="177.5" cy="446.6152" rx="3" ry="3" style="stroke:#038048;stroke-width:1.0;fill:none;"/><text fill="#000000" font-family="sans-serif" font-size="11" lengthAdjust="spacing" textLength="67" x="186.5" y="450.25">obj_type: str</text><ellipse cx="177.5" cy="459.5703" rx="3" ry="3" style="stroke:#038048;stroke-width:1.0;fill:none;"/><text fill="#000000" font-family="sans-serif" font-size="11" lengthAdjust="spacing" textLength="88" x="186.5" y="463.2051">output_dict: dict</text><ellipse cx="177.5" cy="472.5254" rx="3" ry="3" style="stroke:#038048;stroke-width:1.0;fill:none;"/><text fill="#000000" font-family="sans-serif" font-size="11" lengthAdjust="spacing" textLength="72" x="186.5" y="476.1602">input_list: list</text><ellipse cx="177.5" cy="485.4805" rx="3" ry="3" style="stroke:#038048;stroke-width:1.0;fill:none;"/><text fill="#000000" font-family="sans-serif" font-size="11" lengthAdjust="spacing" textLength="69" x="186.5" y="489.1152">ip_result: list</text><ellipse cx="177.5" cy="498.4355" rx="3" ry="3" style="stroke:#038048;stroke-width:1.0;fill:none;"/><text fill="#000000" font-family="sans-serif" font-size="11" lengthAdjust="spacing" textLength="100" x="186.5" y="502.0703">tmp_ip_result: dict</text><line style="stroke:#A80036;stroke-width:1.5;" x1="167.5" x2="316.5" y1="508.3906" y2="508.3906"/><ellipse cx="177.5" cy="519.3906" fill="#84BE84" rx="3" ry="3" style="stroke:#038048;stroke-width:1.0;"/><text fill="#000000" font-family="sans-serif" font-size="11" lengthAdjust="spacing" textLength="44" x="186.5" y="523.0254">engine()</text><ellipse cx="177.5" cy="532.3457" fill="#84BE84" rx="3" ry="3" style="stroke:#038048;stroke-width:1.0;"/><text fill="#000000" font-family="sans-serif" font-size="11" lengthAdjust="spacing" textLength="63" x="186.5" y="535.9805">create_vm()</text><ellipse cx="177.5" cy="545.3008" fill="#84BE84" rx="3" ry="3" style="stroke:#038048;stroke-width:1.0;"/><text fill="#000000" font-family="sans-serif" font-size="11" lengthAdjust="spacing" textLength="67" x="186.5" y="548.9355">update_vm()</text><ellipse cx="177.5" cy="558.2559" fill="#84BE84" rx="3" ry="3" style="stroke:#038048;stroke-width:1.0;"/><text fill="#000000" font-family="sans-serif" font-size="11" lengthAdjust="spacing" textLength="100" x="186.5" y="561.8906">crte_upte_stdout()</text><ellipse cx="177.5" cy="571.2109" fill="#84BE84" rx="3" ry="3" style="stroke:#038048;stroke-width:1.0;"/><text fill="#000000" font-family="sans-serif" font-size="11" lengthAdjust="spacing" textLength="90" x="186.5" y="574.8457">format_rslt_err()</text><ellipse cx="177.5" cy="584.166" fill="#84BE84" rx="3" ry="3" style="stroke:#038048;stroke-width:1.0;"/><text fill="#000000" font-family="sans-serif" font-size="11" lengthAdjust="spacing" textLength="83" x="186.5" y="587.8008">crte_upte_intf()</text><ellipse cx="177.5" cy="597.1211" fill="#84BE84" rx="3" ry="3" style="stroke:#038048;stroke-width:1.0;"/><text fill="#000000" font-family="sans-serif" font-size="11" lengthAdjust="spacing" textLength="75" x="186.5" y="600.7559">crte_upte_ip()</text><ellipse cx="177.5" cy="610.0762" fill="#84BE84" rx="3" ry="3" style="stroke:#038048;stroke-width:1.0;"/><text fill="#000000" font-family="sans-serif" font-size="11" lengthAdjust="spacing" textLength="125" x="186.5" y="613.7109">format_stdout_intf_ip()</text><!--MD5=[50201586feec7fe178b650ffa5ae57e0]
class NboxApi--><rect codeLine="69" fill="#FEFECE" filter="url(#f196ppjbhjbdx)" height="423.6973" id="NboxApi" style="stroke:#A80036;stroke-width:1.5;" width="145" x="169.5" y="680.1992"/><ellipse cx="212.85" cy="696.1992" fill="#ADD1B2" rx="11" ry="11" style="stroke:#A80036;stroke-width:1.0;"/><path d="M215.3231,702.3423 Q214.7421,702.6411 214.1029,702.7905 Q213.4638,702.9399 212.7582,702.9399 Q210.2514,702.9399 208.9315,701.2881 Q207.6117,699.6362 207.6117,696.5151 Q207.6117,693.3857 208.9315,691.7339 Q210.2514,690.082 212.7582,690.082 Q213.4638,690.082 214.1112,690.2314 Q214.7587,690.3809 215.3231,690.6797 L215.3231,693.4023 Q214.6923,692.8213 214.0988,692.5515 Q213.5053,692.2817 212.8744,692.2817 Q211.5297,692.2817 210.8449,693.3484 Q210.1601,694.415 210.1601,696.5151 Q210.1601,698.6069 210.8449,699.6736 Q211.5297,700.7402 212.8744,700.7402 Q213.5053,700.7402 214.0988,700.4705 Q214.6923,700.2007 215.3231,699.6196 Z " fill="#000000"/><text fill="#000000" font-family="sans-serif" font-size="12" lengthAdjust="spacing" textLength="50" x="233.15" y="700.7344">NboxApi</text><line style="stroke:#A80036;stroke-width:1.5;" x1="170.5" x2="313.5" y1="712.1992" y2="712.1992"/><ellipse cx="180.5" cy="723.1992" rx="3" ry="3" style="stroke:#038048;stroke-width:1.0;fill:none;"/><text fill="#000000" font-family="sans-serif" font-size="11" lengthAdjust="spacing" textLength="93" x="189.5" y="726.834">self.nb: pynetbox</text><ellipse cx="180.5" cy="736.1543" rx="3" ry="3" style="stroke:#038048;stroke-width:1.0;fill:none;"/><text fill="#000000" font-family="sans-serif" font-size="11" lengthAdjust="spacing" textLength="60" x="189.5" y="739.7891">self.rc: rich</text><ellipse cx="180.5" cy="749.1094" rx="3" ry="3" style="stroke:#038048;stroke-width:1.0;fill:none;"/><text fill="#000000" font-family="sans-serif" font-size="11" lengthAdjust="spacing" textLength="53" x="189.5" y="752.7441">url: string</text><ellipse cx="180.5" cy="762.0645" rx="3" ry="3" style="stroke:#038048;stroke-width:1.0;fill:none;"/><text fill="#000000" font-family="sans-serif" font-size="11" lengthAdjust="spacing" textLength="68" x="189.5" y="765.6992">token: string</text><ellipse cx="180.5" cy="775.0195" rx="3" ry="3" style="stroke:#038048;stroke-width:1.0;fill:none;"/><text fill="#000000" font-family="sans-serif" font-size="11" lengthAdjust="spacing" textLength="90" x="189.5" y="778.6543">obj_name: string</text><ellipse cx="180.5" cy="787.9746" rx="3" ry="3" style="stroke:#038048;stroke-width:1.0;fill:none;"/><text fill="#000000" font-family="sans-serif" font-size="11" lengthAdjust="spacing" textLength="79" x="189.5" y="791.6094">api_attr: string</text><ellipse cx="180.5" cy="800.9297" rx="3" ry="3" style="stroke:#038048;stroke-width:1.0;fill:none;"/><text fill="#000000" font-family="sans-serif" font-size="11" lengthAdjust="spacing" textLength="77" x="189.5" y="804.5645">input_obj: dict</text><ellipse cx="180.5" cy="813.8848" rx="3" ry="3" style="stroke:#038048;stroke-width:1.0;fill:none;"/><text fill="#000000" font-family="sans-serif" font-size="11" lengthAdjust="spacing" textLength="50" x="189.5" y="817.5195">error: list</text><ellipse cx="180.5" cy="826.8398" rx="3" ry="3" style="stroke:#038048;stroke-width:1.0;fill:none;"/><text fill="#000000" font-family="sans-serif" font-size="11" lengthAdjust="spacing" textLength="57" x="189.5" y="830.4746">result: dict</text><ellipse cx="180.5" cy="839.7949" rx="3" ry="3" style="stroke:#038048;stroke-width:1.0;fill:none;"/><text fill="#000000" font-family="sans-serif" font-size="11" lengthAdjust="spacing" textLength="96" x="189.5" y="843.4297">api_obj: pynetbox</text><ellipse cx="180.5" cy="852.75" rx="3" ry="3" style="stroke:#038048;stroke-width:1.0;fill:none;"/><text fill="#000000" font-family="sans-serif" font-size="11" lengthAdjust="spacing" textLength="89" x="189.5" y="856.3848">task_type: string</text><ellipse cx="180.5" cy="865.7051" rx="3" ry="3" style="stroke:#038048;stroke-width:1.0;fill:none;"/><text fill="#000000" font-family="sans-serif" font-size="11" lengthAdjust="spacing" textLength="118" x="189.5" y="869.3398">input_obj_type: string</text><ellipse cx="180.5" cy="878.6602" rx="3" ry="3" style="stroke:#038048;stroke-width:1.0;fill:none;"/><text fill="#000000" font-family="sans-serif" font-size="11" lengthAdjust="spacing" textLength="119" x="189.5" y="882.2949">other_obj_type: string</text><ellipse cx="180.5" cy="891.6152" rx="3" ry="3" style="stroke:#038048;stroke-width:1.0;fill:none;"/><text fill="#000000" font-family="sans-serif" font-size="11" lengthAdjust="spacing" textLength="77" x="189.5" y="895.25">obj_id: integer</text><ellipse cx="180.5" cy="904.5703" rx="3" ry="3" style="stroke:#038048;stroke-width:1.0;fill:none;"/><text fill="#000000" font-family="sans-serif" font-size="11" lengthAdjust="spacing" textLength="105" x="189.5" y="908.2051">obj_cntr_fltr: string</text><ellipse cx="180.5" cy="917.5254" rx="3" ry="3" style="stroke:#038048;stroke-width:1.0;fill:none;"/><text fill="#000000" font-family="sans-serif" font-size="11" lengthAdjust="spacing" textLength="105" x="189.5" y="921.1602">obj_cntr_id: integer</text><ellipse cx="180.5" cy="930.4805" rx="3" ry="3" style="stroke:#038048;stroke-width:1.0;fill:none;"/><text fill="#000000" font-family="sans-serif" font-size="11" lengthAdjust="spacing" textLength="118" x="189.5" y="934.1152">obj_cntr_name: string</text><ellipse cx="180.5" cy="943.4355" rx="3" ry="3" style="stroke:#038048;stroke-width:1.0;fill:none;"/><text fill="#000000" font-family="sans-serif" font-size="11" lengthAdjust="spacing" textLength="56" x="189.5" y="947.0703">intf: string</text><ellipse cx="180.5" cy="956.3906" rx="3" ry="3" style="stroke:#038048;stroke-width:1.0;fill:none;"/><text fill="#000000" font-family="sans-serif" font-size="11" lengthAdjust="spacing" textLength="72" x="189.5" y="960.0254">vl_grp: string</text><ellipse cx="180.5" cy="969.3457" rx="3" ry="3" style="stroke:#038048;stroke-width:1.0;fill:none;"/><text fill="#000000" font-family="sans-serif" font-size="11" lengthAdjust="spacing" textLength="66" x="189.5" y="972.9805">vlan: integer</text><ellipse cx="180.5" cy="982.3008" rx="3" ry="3" style="stroke:#038048;stroke-width:1.0;fill:none;"/><text fill="#000000" font-family="sans-serif" font-size="11" lengthAdjust="spacing" textLength="60" x="189.5" y="985.9355">vlan_id: list</text><line style="stroke:#A80036;stroke-width:1.5;" x1="170.5" x2="313.5" y1="992.2559" y2="992.2559"/><ellipse cx="180.5" cy="1003.2559" fill="#84BE84" rx="3" ry="3" style="stroke:#038048;stroke-width:1.0;"/><text fill="#000000" font-family="sans-serif" font-size="11" lengthAdjust="spacing" textLength="64" x="189.5" y="1006.8906">obj_create()</text><ellipse cx="180.5" cy="1016.2109" fill="#84BE84" rx="3" ry="3" style="stroke:#038048;stroke-width:1.0;"/><text fill="#000000" font-family="sans-serif" font-size="11" lengthAdjust="spacing" textLength="68" x="189.5" y="1019.8457">obj_update()</text><ellipse cx="180.5" cy="1029.166" fill="#84BE84" rx="3" ry="3" style="stroke:#038048;stroke-width:1.0;"/><text fill="#000000" font-family="sans-serif" font-size="11" lengthAdjust="spacing" textLength="63" x="189.5" y="1032.8008">obj_delete()</text><ellipse cx="180.5" cy="1042.1211" fill="#84BE84" rx="3" ry="3" style="stroke:#038048;stroke-width:1.0;"/><text fill="#000000" font-family="sans-serif" font-size="11" lengthAdjust="spacing" textLength="74" x="189.5" y="1045.7559">get_multi_id()</text><ellipse cx="180.5" cy="1055.0762" fill="#84BE84" rx="3" ry="3" style="stroke:#038048;stroke-width:1.0;"/><text fill="#000000" font-family="sans-serif" font-size="11" lengthAdjust="spacing" textLength="79" x="189.5" y="1058.7109">get_single_id()</text><ellipse cx="180.5" cy="1068.0313" fill="#84BE84" rx="3" ry="3" style="stroke:#038048;stroke-width:1.0;"/><text fill="#000000" font-family="sans-serif" font-size="11" lengthAdjust="spacing" textLength="101" x="189.5" y="1071.666">get_single_fltr_id()</text><ellipse cx="180.5" cy="1080.9863" fill="#84BE84" rx="3" ry="3" style="stroke:#038048;stroke-width:1.0;"/><text fill="#000000" font-family="sans-serif" font-size="11" lengthAdjust="spacing" textLength="69" x="189.5" y="1084.6211">get_vlan_id()</text><ellipse cx="180.5" cy="1093.9414" fill="#84BE84" rx="3" ry="3" style="stroke:#038048;stroke-width:1.0;"/><text fill="#000000" font-family="sans-serif" font-size="11" lengthAdjust="spacing" textLength="59" x="189.5" y="1097.5762">chk_exist()</text><!--MD5=[2ac0796504fd5cf7ff6a426063de4051]
link main to NboxApi--><path codeLine="101" d="M304.78,175.4792 C317.18,193.8292 328.4,214.2992 335,235.1992 C386.55,398.3592 363.15,451.4192 335,620.1992 C330.57,646.7592 323.85,674.1992 316.02,700.9692 " fill="none" id="main-to-NboxApi" style="stroke:#A80036;stroke-width:1.0;stroke-dasharray:7.0,7.0;"/><polygon fill="#A80036" points="314.54,705.9592,320.9206,698.4567,315.9531,701.1631,313.2468,696.1956,314.54,705.9592" style="stroke:#A80036;stroke-width:1.0;"/><!--MD5=[b06207c25bf77319a0c220e2b6a0f80a]
link main to CreateDm--><path codeLine="102" d="M186.69,175.4992 C173.5,194.4292 160.06,215.1392 149,235.1992 C141.85,248.1692 134.93,261.9092 128.36,275.8392 " fill="none" id="main-to-CreateDm" style="stroke:#A80036;stroke-width:1.0;stroke-dasharray:7.0,7.0;"/><polygon fill="#A80036" points="126.14,280.5692,133.5885,274.1256,128.2669,276.0442,126.3484,270.7226,126.14,280.5692" style="stroke:#A80036;stroke-width:1.0;"/><!--MD5=[66c2b8a66d12fbabc60b7c939a6e88db]
link main to CreateObject--><path codeLine="103" d="M242,175.4092 C242,192.0392 242,210.4892 242,229.6292 " fill="none" id="main-to-CreateObject" style="stroke:#A80036;stroke-width:1.0;stroke-dasharray:7.0,7.0;"/><polygon fill="#A80036" points="242,235.0492,246,226.0492,242,230.0492,238,226.0492,242,235.0492" style="stroke:#A80036;stroke-width:1.0;"/><!--MD5=[0b974d26cc6aca8ee24ad180c76d1e3a]
link CreateDm to NboxApi--><path codeLine="104" d="M123.62,574.7192 C137.61,612.1092 152.89,652.9592 167.68,692.5192 " fill="none" id="CreateDm-to-NboxApi" style="stroke:#A80036;stroke-width:1.0;stroke-dasharray:7.0,7.0;"/><polygon fill="#A80036" points="169.48,697.3292,170.0915,687.4994,167.7369,692.6429,162.5934,690.2883,169.48,697.3292" style="stroke:#A80036;stroke-width:1.0;"/><!--MD5=[648b54893815d5e76441594cddff2ee1]
link CreateObject to NboxApi--><path codeLine="105" d="M242,620.4892 C242,638.4192 242,656.6792 242,674.8192 " fill="none" id="CreateObject-to-NboxApi" style="stroke:#A80036;stroke-width:1.0;stroke-dasharray:7.0,7.0;"/><polygon fill="#A80036" points="242,679.9292,246,670.9292,242,674.9292,238,670.9292,242,679.9292" style="stroke:#A80036;stroke-width:1.0;"/><!--MD5=[8f9aa722e12a17c5bd7c87d13601bd75]
@startuml
' top to bottom direction
' scale 2

title Class Diagram

class main << (F,orange) >> {
    script, first = argv
    - -
    rc = Console()
    nbox = NboxApi()
    create_dm = CreateDm()
    create_obj = CreateObject()
    - -
    dm = create_dm.engine()
    create_obj.engine()
}

class CreateDm {
    +self.rc: class
    +self.nbox: class
    +self.my_vars: dict
    +clstr_err: list
    +clstr_site: dict
    +vm_err: list
    +tmp_vm: dict
    +vm: dict
    +intf_err: list
    +attr_dict:dict
    +tmp_attr_dict: dict
    +tmp_intf_dict: dict
    +tmp_intf_ip: list
    +all_vm: list
    +engine()
    +create_vm()
    +rmv_empty_attr()
    +create_intf_dm()
    +vm_error()
}

class CreateObject{
    +self.rc: class
    +self.nbox: class
    +vm: dict
    +vm_info: dict
    +intf_info: dict
    +vm_exist: dict
    +deploy_err: list
    +vm_result: dict
    +dm: dict
    +vm_attr_update: str
    +intf_info: dict
    +intf_result: list
    +intf_exist: dict
    +obj_type: str
    +output_dict: dict
    +input_list: list
    +ip_result: list
    +tmp_ip_result: dict
    +engine()
    +create_vm()
    +update_vm()
    +crte_upte_stdout()
    +format_rslt_err()
    +crte_upte_intf()
    +crte_upte_ip()
    +format_stdout_intf_ip()

}
class NboxApi {
    +self.nb: pynetbox
    +self.rc: rich
    +url: string
    +token: string
    +obj_name: string
    +api_attr: string
    +input_obj: dict
    +error: list
    +result: dict
    +api_obj: pynetbox
    +task_type: string
    +input_obj_type: string
    +other_obj_type: string
    +obj_id: integer
    +obj_cntr_fltr: string
    +obj_cntr_id: integer
    +obj_cntr_name: string
    +intf: string
    +vl_grp: string
    +vlan: integer
    +vlan_id: list
    +obj_create()
    +obj_update()
    +obj_delete()
    +get_multi_id()
    +get_single_id()
    +get_single_fltr_id()
    +get_vlan_id()
    +chk_exist()
}

main ..> NboxApi
main ..> CreateDm
main ..> CreateObject
CreateDm ..> NboxApi
CreateObject ..> NboxApi

@enduml

@startuml

title Class Diagram

class main << (F,orange) >> {
    script, first = argv
    - -
    rc = Console()
    nbox = NboxApi()
    create_dm = CreateDm()
    create_obj = CreateObject()
    - -
    dm = create_dm.engine()
    create_obj.engine()
}

class CreateDm {
    +self.rc: class
    +self.nbox: class
    +self.my_vars: dict
    +clstr_err: list
    +clstr_site: dict
    +vm_err: list
    +tmp_vm: dict
    +vm: dict
    +intf_err: list
    +attr_dict:dict
    +tmp_attr_dict: dict
    +tmp_intf_dict: dict
    +tmp_intf_ip: list
    +all_vm: list
    +engine()
    +create_vm()
    +rmv_empty_attr()
    +create_intf_dm()
    +vm_error()
}

class CreateObject{
    +self.rc: class
    +self.nbox: class
    +vm: dict
    +vm_info: dict
    +intf_info: dict
    +vm_exist: dict
    +deploy_err: list
    +vm_result: dict
    +dm: dict
    +vm_attr_update: str
    +intf_info: dict
    +intf_result: list
    +intf_exist: dict
    +obj_type: str
    +output_dict: dict
    +input_list: list
    +ip_result: list
    +tmp_ip_result: dict
    +engine()
    +create_vm()
    +update_vm()
    +crte_upte_stdout()
    +format_rslt_err()
    +crte_upte_intf()
    +crte_upte_ip()
    +format_stdout_intf_ip()

}
class NboxApi {
    +self.nb: pynetbox
    +self.rc: rich
    +url: string
    +token: string
    +obj_name: string
    +api_attr: string
    +input_obj: dict
    +error: list
    +result: dict
    +api_obj: pynetbox
    +task_type: string
    +input_obj_type: string
    +other_obj_type: string
    +obj_id: integer
    +obj_cntr_fltr: string
    +obj_cntr_id: integer
    +obj_cntr_name: string
    +intf: string
    +vl_grp: string
    +vlan: integer
    +vlan_id: list
    +obj_create()
    +obj_update()
    +obj_delete()
    +get_multi_id()
    +get_single_id()
    +get_single_fltr_id()
    +get_vlan_id()
    +chk_exist()
}

main ..> NboxApi
main ..> CreateDm
main ..> CreateObject
CreateDm ..> NboxApi
CreateObject ..> NboxApi

@enduml

PlantUML version 1.2021.7(Sun May 23 13:40:07 BST 2021)
(GPL source distribution)
Java Runtime: OpenJDK Runtime Environment
JVM: OpenJDK 64-Bit Server VM
Default Encoding: UTF-8
Language: en
Country: GB
--></g></svg>